<svg width="124" height="34" viewBox="0 0 124 34" fill="none" xmlns="http://www.w3.org/2000/svg">
<g clip-path="url(#clip0_819_3294)">
<path d="M10.0547 1.9549L10.3 21.8387C10.3 22.3235 10.7905 22.5661 11.281 22.3235L16.1862 19.6562C16.6767 19.4137 16.6767 18.9288 16.6767 18.6863L16.4314 13.5941C16.4314 12.3817 17.6577 11.8967 18.6387 12.3817L31.8827 20.3837C32.128 20.6262 32.6185 20.1412 32.3731 19.8987L21.5818 7.04706C21.0914 6.5621 21.3365 5.83464 22.0723 5.59216L23.5439 5.10718C24.0343 5.10718 24.0343 4.37975 23.5439 4.13725L11.7715 0.5C11.5262 0.5 11.5262 0.5 11.281 0.5C10.5452 0.5 10.0547 0.984968 10.0547 1.9549Z" fill="#72BE44"/>
<path d="M8.33877 4.13749L3.18835 20.6264C2.9431 21.3538 2.20732 21.5963 1.71681 21.1115L0.735775 20.1414C0.490517 19.6565 0 20.1414 0 20.6264L2.9431 32.2657C3.18835 33.2356 4.1694 33.478 4.90517 32.9931L21.0922 23.7786C21.5828 23.5363 21.5828 23.0512 21.0922 22.8088L17.9038 20.6264C17.4133 20.3839 17.1681 20.3839 16.6776 20.6264L11.2819 23.5363C10.5461 24.0211 9.31982 23.5363 9.31982 22.3238L9.07455 4.37997C9.07455 4.13749 8.8293 4.13749 8.8293 4.13749C8.58404 3.89501 8.33877 4.13749 8.33877 4.13749Z" fill="#EF4136"/>
<path d="M17.66 14.0786V18.6858C17.66 19.1708 17.9053 19.4132 18.1506 19.6557L22.0746 22.0806C23.0557 22.5655 23.0557 24.0205 22.0746 24.5054L7.60447 32.7499C7.3592 32.9923 7.3592 33.4773 7.84972 33.2348L23.301 30.3249C24.0367 30.0826 24.5274 30.81 24.2821 31.2949L24.0367 32.7499C24.0367 33.2348 24.5274 33.4773 24.7725 33.2348L33.847 24.7479C34.3376 24.2628 34.3376 23.0505 33.3566 22.5655L18.6411 13.5936H18.3958C17.9053 13.3511 17.66 13.8361 17.66 14.0786Z" fill="#FFC20E"/>
<path d="M55.5731 17.4673H52.3297C52.2156 17.4673 52.123 17.558 52.123 17.6698V20.8802C52.123 20.992 52.2156 21.0827 52.3297 21.0827H55.5731C55.6872 21.0827 55.7797 20.992 55.7797 20.8802V17.6698C55.7797 17.558 55.6872 17.4673 55.5731 17.4673Z" fill="#E9423A"/>
<path d="M123.794 17.4673H120.55C120.436 17.4673 120.344 17.558 120.344 17.6698V20.8802C120.344 20.992 120.436 21.0827 120.55 21.0827H123.794C123.908 21.0827 124 20.992 124 20.8802V17.6698C124 17.558 123.908 17.4673 123.794 17.4673Z" fill="#72BE44"/>
<path d="M46.7355 17.1612C46.7812 17.1612 46.8182 17.1249 46.8182 17.0802V16.822C46.8182 15.9459 46.6216 15.2746 46.2286 14.8083C45.8427 14.342 45.2781 14.1088 44.5349 14.1088C43.806 14.1088 43.1734 14.3985 42.6375 14.9779C42.126 15.5314 41.8319 16.2302 41.7549 17.0745C41.7505 17.1213 41.7885 17.1612 41.8365 17.1612H46.7355ZM48.6507 21.5689C48.7061 21.5337 48.7799 21.5722 48.7799 21.6369V22.6397C48.7799 22.6666 48.766 22.6921 48.7429 22.7069C48.1041 23.1191 47.4411 23.4325 46.7539 23.6475C46.0535 23.8666 45.3496 23.9761 44.6422 23.9761C43.1914 23.9761 42.0122 23.4849 41.1045 22.5028C40.204 21.5137 39.7539 20.2277 39.7539 18.645C39.7539 17.0199 40.2255 15.6951 41.169 14.6705C42.1194 13.639 43.3379 13.1232 44.8243 13.1232C46.0393 13.1232 47.0005 13.5082 47.7079 14.2784C48.4225 15.0415 48.7799 16.0837 48.7799 17.405C48.7799 17.5816 48.7764 17.7158 48.7691 17.8077C48.7691 17.8752 48.7654 17.9409 48.7575 18.0046C48.7528 18.044 48.7181 18.0727 48.6776 18.0727H41.7232C41.6776 18.0727 41.6406 18.1089 41.6406 18.1536V18.3164C41.6406 19.6801 41.9729 20.7611 42.6375 21.5596C43.3022 22.351 44.1991 22.7466 45.3281 22.7466C45.85 22.7466 46.3894 22.6442 46.9469 22.4393C47.4744 22.2477 48.0423 21.9576 48.6507 21.5689Z" fill="#333333"/>
<path d="M58.8789 14.7304C58.8789 14.6857 58.8419 14.6494 58.7962 14.6494H57.5788C57.5331 14.6494 57.4961 14.6131 57.4961 14.5684V14.0239C57.4961 13.9918 57.5153 13.9627 57.5453 13.9498L58.9144 13.3582C58.933 13.3502 58.9479 13.3358 58.9562 13.3177L59.8645 11.3688C59.8779 11.34 59.9073 11.3215 59.9397 11.3215H60.6186C60.6643 11.3215 60.7013 11.3577 60.7013 11.4025V13.551C60.7013 13.5957 60.7383 13.6319 60.784 13.6319H63.9631C64.0088 13.6319 64.0458 13.6682 64.0458 13.7129V14.5684C64.0458 14.6131 64.0088 14.6494 63.9631 14.6494H60.784C60.7383 14.6494 60.7013 14.6857 60.7013 14.7304V20.3726C60.7013 21.3123 60.8335 21.9448 61.0979 22.2697C61.3622 22.5878 61.8375 22.7467 62.5237 22.7467C62.7595 22.7467 63.0025 22.7325 63.2526 22.7042C63.4774 22.6795 63.7079 22.6414 63.9437 22.5896C63.996 22.5782 64.0458 22.6167 64.0458 22.6691V23.3127C64.0458 23.348 64.0224 23.3791 63.9881 23.3897C63.5076 23.5367 63.0337 23.6508 62.5665 23.7322C62.0806 23.81 61.6125 23.8488 61.1621 23.8488C60.3189 23.8488 59.7258 23.6934 59.3828 23.3826C59.0469 23.0645 58.8789 22.4888 58.8789 21.655V14.7304Z" fill="#333333"/>
<path d="M72.0775 17.1619C72.1232 17.1619 72.1602 17.1256 72.1602 17.0809V16.8227C72.1602 15.9466 71.9636 15.2753 71.5706 14.809C71.1845 14.3427 70.6201 14.1095 69.8767 14.1095C69.1478 14.1095 68.5154 14.3992 67.9793 14.9786C67.468 15.5321 67.1737 16.2309 67.0969 17.0752C67.0925 17.122 67.1305 17.1619 67.1785 17.1619H72.0775ZM73.9927 21.5696C74.0481 21.5342 74.1219 21.5729 74.1219 21.6377V22.6402C74.1219 22.6673 74.108 22.6926 74.0849 22.7076C73.4459 23.1198 72.7829 23.4332 72.0957 23.6482C71.3955 23.8673 70.6914 23.9766 69.984 23.9766C68.5332 23.9766 67.3542 23.4857 66.4465 22.5036C65.546 21.5144 65.0957 20.2284 65.0957 18.6457C65.0957 17.0206 65.5675 15.6958 66.5107 14.6712C67.4612 13.6396 68.6797 13.1238 70.1663 13.1238C71.3811 13.1238 72.3423 13.5089 73.0499 14.2791C73.7645 15.0422 74.1219 16.0844 74.1219 17.4056C74.1219 17.5823 74.1184 17.7165 74.1111 17.8084C74.1111 17.8759 74.1072 17.9416 74.0995 18.0053C74.0948 18.0447 74.0601 18.0733 74.0196 18.0733H67.0652C67.0196 18.0733 66.9826 18.1096 66.9826 18.1543V18.3171C66.9826 19.6808 67.3147 20.7618 67.9793 21.5603C68.644 22.3515 69.5409 22.7473 70.6701 22.7473C71.1917 22.7473 71.7314 22.6449 72.2887 22.44C72.8161 22.2485 73.3841 21.9583 73.9927 21.5696Z" fill="#333333"/>
<path d="M75.8034 23.7859C75.7579 23.7859 75.7207 23.7497 75.7207 23.7049V23.0757C75.7207 23.0338 75.7534 22.9988 75.7959 22.9949L76.882 22.8981C76.9006 22.8965 76.9181 22.8888 76.9316 22.8763L77.2602 22.5698C77.2767 22.5546 77.2858 22.5333 77.2858 22.5112V14.7734C77.2858 14.7287 77.2488 14.6924 77.2031 14.6924H75.8034C75.7579 14.6924 75.7207 14.6562 75.7207 14.6114V14.0738C75.7207 14.0383 75.7445 14.007 75.779 13.9965L78.2602 13.2441C78.2681 13.2416 78.2763 13.2404 78.2846 13.2404H79.0255C79.0712 13.2404 79.1082 13.2767 79.1082 13.3214V14.2895C79.1082 14.3514 79.1762 14.3903 79.2316 14.3604C80.0537 13.9157 80.72 13.6024 81.2309 13.4206C81.7667 13.2228 82.2383 13.1238 82.6457 13.1238C83.6034 13.1238 84.3358 13.4065 84.8434 13.9717C85.3507 14.537 85.6043 15.3566 85.6043 16.4306V22.5112C85.6043 22.5333 85.6136 22.5546 85.6302 22.5698L85.9588 22.8763C85.9722 22.8888 85.9898 22.8965 86.0082 22.8981L87.0836 22.9949C87.1262 22.9988 87.1589 23.0336 87.1589 23.0755V23.7049C87.1589 23.7497 87.1217 23.7859 87.0762 23.7859H82.439C82.3933 23.7859 82.3564 23.7497 82.3564 23.7049V23.0747C82.3564 23.0332 82.3884 22.9984 82.4306 22.9941L83.3787 22.8985C83.3969 22.8967 83.4141 22.889 83.4273 22.8767L83.7563 22.5698C83.7729 22.5546 83.7822 22.5333 83.7822 22.5112V16.8015C83.7822 15.989 83.6106 15.4131 83.2675 15.074C82.9317 14.7348 82.3634 14.5652 81.563 14.5652C81.2129 14.5652 80.834 14.6253 80.4267 14.7454C80.0322 14.8549 79.6077 15.024 79.1528 15.2528C79.1253 15.2666 79.1082 15.2943 79.1082 15.3245V22.5112C79.1082 22.5333 79.1175 22.5546 79.134 22.5698L79.463 22.8767C79.4762 22.889 79.4934 22.8967 79.5116 22.8985L80.4598 22.9941C80.5019 22.9984 80.534 23.0332 80.534 23.0747V23.7049C80.534 23.7497 80.497 23.7859 80.4513 23.7859H75.8034Z" fill="#333333"/>
<path d="M95.9102 21.8803C95.9343 21.8657 95.949 21.8398 95.949 21.8119V14.4669C95.949 14.4308 95.9246 14.3991 95.8891 14.3892C95.5127 14.2845 95.1717 14.2053 94.8663 14.1516C94.5517 14.088 94.2694 14.0562 94.0194 14.0562C92.8974 14.0562 91.9899 14.466 91.2965 15.2857C90.6106 16.1053 90.2675 17.1863 90.2675 18.5288C90.2675 19.7794 90.5641 20.7721 91.1572 21.507C91.7576 22.2417 92.558 22.6092 93.5585 22.6092C93.9443 22.6092 94.3339 22.5492 94.727 22.429C95.1147 22.3059 95.509 22.1229 95.9102 21.8803ZM95.949 9.3467C95.949 9.30196 95.912 9.26572 95.8663 9.26572H94.3486C94.3029 9.26572 94.2659 9.22946 94.2659 9.18474V8.64797C94.2659 8.61206 94.2901 8.58043 94.3252 8.57029L96.9344 7.81702C96.942 7.81483 96.9499 7.81372 96.9578 7.81372H97.6887C97.7344 7.81372 97.7714 7.84998 97.7714 7.8947V22.511C97.7714 22.533 97.7807 22.5543 97.797 22.5695L98.126 22.8764C98.1393 22.8887 98.1564 22.8964 98.1746 22.8983L99.1228 22.9938C99.1649 22.9981 99.197 23.0329 99.197 23.0744V23.7046C99.197 23.7494 99.16 23.7856 99.1143 23.7856H96.0317C95.986 23.7856 95.949 23.7494 95.949 23.7046V22.8317C95.949 22.7636 95.8682 22.7258 95.8132 22.7675C95.2889 23.1663 94.7768 23.4633 94.2767 23.6585C93.7335 23.8704 93.1654 23.9763 92.5723 23.9763C91.343 23.9763 90.3283 23.503 89.5279 22.5563C88.7345 21.6024 88.3379 20.3835 88.3379 18.8997C88.3379 17.1757 88.8597 15.7803 89.903 14.7133C90.9535 13.6394 92.3185 13.1024 93.9979 13.1024C94.2909 13.1024 94.6018 13.1236 94.9306 13.166C95.2275 13.2043 95.5334 13.257 95.848 13.3241C95.8998 13.3352 95.949 13.2967 95.949 13.2448V9.3467Z" fill="#333333"/>
<path d="M107.753 17.1619C107.799 17.1619 107.836 17.1256 107.836 17.0809V16.8227C107.836 15.9466 107.639 15.2753 107.246 14.809C106.86 14.3427 106.296 14.1095 105.553 14.1095C104.824 14.1095 104.191 14.3992 103.655 14.9786C103.144 15.5321 102.85 16.2309 102.772 17.0752C102.768 17.122 102.806 17.1619 102.854 17.1619H107.753ZM109.668 21.5696C109.724 21.5342 109.798 21.5729 109.798 21.6377V22.6402C109.798 22.6673 109.784 22.6926 109.761 22.7076C109.122 23.1198 108.459 23.4332 107.772 23.6482C107.071 23.8673 106.367 23.9766 105.66 23.9766C104.209 23.9766 103.03 23.4857 102.122 22.5036C101.222 21.5144 100.771 20.2284 100.771 18.6457C100.771 17.0206 101.243 15.6958 102.187 14.6712C103.137 13.6396 104.356 13.1238 105.842 13.1238C107.057 13.1238 108.018 13.5089 108.726 14.2791C109.44 15.0422 109.798 16.0844 109.798 17.4056C109.798 17.5823 109.794 17.7165 109.787 17.8084C109.787 17.8759 109.783 17.9416 109.775 18.0053C109.77 18.0447 109.736 18.0733 109.695 18.0733H102.741C102.695 18.0733 102.658 18.1096 102.658 18.1543V18.3171C102.658 19.6808 102.99 20.7618 103.655 21.5603C104.32 22.3515 105.217 22.7473 106.346 22.7473C106.868 22.7473 107.407 22.6449 107.965 22.44C108.492 22.2485 109.06 21.9583 109.668 21.5696Z" fill="#333333"/>
<path d="M111.477 23.7859C111.432 23.7859 111.395 23.7497 111.395 23.7049V23.0755C111.395 23.0336 111.427 22.9988 111.47 22.9949L112.535 22.8983C112.553 22.8965 112.57 22.8888 112.584 22.8763L112.912 22.5698C112.929 22.5546 112.938 22.5333 112.938 22.5112V14.7734C112.938 14.7287 112.901 14.6924 112.855 14.6924H111.477C111.432 14.6924 111.395 14.6562 111.395 14.6114V14.0738C111.395 14.0383 111.418 14.007 111.453 13.9965L113.934 13.2441C113.942 13.2416 113.95 13.2404 113.958 13.2404H114.699C114.745 13.2404 114.782 13.2767 114.782 13.3214V15.0757C114.782 15.1485 114.872 15.1845 114.925 15.1327C115.238 14.8217 115.562 14.5159 115.897 14.2155C116.286 13.8654 116.693 13.5222 117.118 13.186C117.126 13.1799 117.134 13.1752 117.144 13.1723C117.204 13.1536 117.267 13.141 117.333 13.1344C117.412 13.1274 117.526 13.1238 117.676 13.1238C117.898 13.1238 118.116 13.1486 118.33 13.198C118.529 13.2374 118.734 13.301 118.946 13.389C118.975 13.4016 118.995 13.4307 118.995 13.4628V15.1944C118.995 15.2391 118.958 15.2753 118.912 15.2753H118.337C118.312 15.2753 118.289 15.2645 118.273 15.2462C118.136 15.0911 117.976 14.9737 117.794 14.8938C117.608 14.8019 117.401 14.756 117.173 14.756C116.822 14.756 116.451 14.8867 116.058 15.1482C115.677 15.399 115.258 15.7907 114.801 16.3232C114.789 16.3377 114.782 16.3562 114.782 16.3752V22.5112C114.782 22.5333 114.791 22.5546 114.808 22.5698L115.136 22.8757C115.15 22.8886 115.168 22.8963 115.187 22.8977L116.613 22.9963C116.656 22.9994 116.69 23.0346 116.69 23.0771V23.7049C116.69 23.7497 116.653 23.7859 116.607 23.7859H111.477Z" fill="#333333"/>
</g>
<defs>
<clipPath id="clip0_819_3294">
<rect width="124" height="33" fill="white" transform="translate(0 0.5)"/>
</clipPath>
</defs>
</svg>
